<?xml version="1.0" standalone="no"?>
<!DOCTYPE svg PUBLIC "-//W3C//DTD SVG 20010904//EN"
 "http://www.w3.org/TR/2001/REC-SVG-20010904/DTD/svg10.dtd">
<svg version="1.0" xmlns="http://www.w3.org/2000/svg"
 width="920.000000pt" height="920.000000pt" viewBox="0 0 920.000000 920.000000"
 preserveAspectRatio="xMidYMid meet">

<g transform="translate(0.000000,920.000000) scale(0.100000,-0.100000)"
fill="#525252" stroke="none">
<path d="M6800 7470 c-247 -22 -448 -95 -625 -227 -224 -166 -385 -441 -452
-771 -12 -61 -16 -176 -20 -549 l-5 -472 -46 -6 c-138 -18 -227 -59 -315 -148
-97 -98 -143 -207 -149 -355 l-3 -72 -1875 0 c-1215 0 -1905 -4 -1960 -10
-569 -69 -932 -629 -758 -1170 90 -279 313 -496 605 -587 l88 -28 1950 -5
1950 -5 -3 -40 c-5 -68 25 -204 59 -274 63 -129 207 -241 345 -271 33 -7 489
-10 1409 -8 1318 3 1361 4 1405 22 174 75 293 213 329 384 15 74 16 2089 0
2164 -36 170 -173 324 -342 382 -62 21 -70 21 -1166 26 l-1104 5 1 440 c1 476
5 517 59 669 63 175 200 338 343 408 142 70 210 83 420 82 172 0 191 -2 275
-28 131 -40 223 -96 314 -192 162 -170 231 -388 231 -723 l0 -141 206 0 206 0
-5 218 c-4 167 -10 239 -26 312 -103 475 -388 802 -801 921 -153 45 -374 65
-540 49z m-1650 -3502 l0 -598 -1888 0 c-1861 0 -1890 0 -1968 20 -95 25 -196
83 -268 154 -233 234 -234 610 -2 841 107 106 224 162 365 174 42 4 905 7
1919 7 l1842 0 0 -598z m1815 591 c78 -14 140 -47 191 -101 65 -67 87 -119 92
-218 6 -120 -19 -183 -105 -268 l-64 -63 85 -263 c48 -145 86 -266 86 -270 0
-3 -153 -6 -340 -6 -187 0 -340 3 -340 6 0 3 38 124 85 268 47 144 85 267 85
273 0 7 -9 14 -20 18 -34 11 -108 103 -130 163 -76 201 52 426 262 461 29 5
53 9 54 10 0 0 27 -4 59 -10z"/>
<path d="M1748 4432 l-88 -3 0 -141 0 -142 -27 25 c-16 14 -78 64 -140 112
l-112 86 -55 -71 -55 -71 164 -126 c90 -69 164 -129 165 -132 0 -3 -74 -63
-164 -133 l-165 -127 52 -69 c29 -38 54 -69 57 -69 3 0 66 47 140 104 l135
105 3 -140 3 -140 89 0 90 0 0 140 c0 77 2 140 6 140 3 0 65 -47 139 -105 74
-58 136 -105 139 -105 6 0 109 140 105 144 -17 12 -316 241 -322 246 -5 4 63
63 150 130 87 68 162 126 166 130 10 9 -83 139 -99 140 -7 0 -72 -47 -145
-104 l-134 -104 -5 142 -5 141 -87 -3z"/>
<path d="M4463 4432 l-82 -3 -3 -139 -3 -139 -130 101 c-71 55 -135 104 -140
109 -7 5 -31 -18 -63 -60 -29 -38 -52 -71 -52 -73 0 -3 74 -62 165 -132 l165
-128 -162 -125 c-90 -69 -165 -127 -167 -129 -5 -4 36 -63 77 -112 l28 -33
136 105 c75 58 139 106 142 106 3 0 6 -63 6 -140 l0 -140 91 0 90 0 -3 140
c-2 77 -1 140 2 140 3 0 66 -47 140 -105 74 -58 137 -105 140 -105 10 1 101
131 98 139 -2 5 -74 64 -161 131 -87 67 -157 126 -155 130 2 4 74 63 161 130
97 75 156 127 153 135 -9 24 -91 125 -101 125 -5 0 -68 -46 -140 -102 l-130
-100 -3 133 c-1 74 -6 136 -10 139 -4 3 -44 4 -89 2z"/>
<path d="M3018 4292 l-3 -139 -134 104 c-73 56 -137 103 -141 103 -15 0 -113
-131 -104 -139 5 -4 77 -61 161 -125 84 -64 154 -120 157 -125 3 -4 -68 -63
-157 -131 -89 -68 -164 -125 -166 -127 -3 -2 68 -100 100 -137 4 -5 69 39 144
98 75 58 138 106 140 106 3 0 5 -63 5 -140 l0 -140 90 0 89 0 3 141 3 140 139
-107 c76 -59 141 -102 145 -97 3 5 27 37 54 71 l48 61 -147 113 c-193 148
-190 146 -184 150 3 3 66 51 140 108 74 57 147 114 162 126 l27 22 -50 66
c-27 36 -54 66 -60 66 -6 0 -71 -47 -145 -105 l-134 -105 0 140 0 140 -90 0
-89 0 -3 -138z"/>
</g>
</svg>
